<?xml version="1.0" standalone="no"?>
<!DOCTYPE svg PUBLIC "-//W3C//DTD SVG 20010904//EN"
 "http://www.w3.org/TR/2001/REC-SVG-20010904/DTD/svg10.dtd">
<svg version="1.0" xmlns="http://www.w3.org/2000/svg"
 width="310.000000pt" height="305.000000pt" viewBox="0 0 310.000000 305.000000"
 preserveAspectRatio="xMidYMid meet">
<metadata>
Created by potrace 1.16, written by Peter Selinger 2001-2019
</metadata>
<g transform="translate(0.000000,305.000000) scale(0.100000,-0.100000)"
fill="#000000" stroke="none">
<path d="M1468 2823 c-41 -3 -58 -8 -58 -18 0 -9 -16 -16 -45 -21 -36 -5 -43
-9 -36 -22 5 -8 6 -24 3 -35 -4 -15 -2 -18 8 -12 10 6 12 -1 7 -36 -5 -37 -4
-40 5 -21 6 12 15 22 20 22 5 0 1 -11 -8 -26 -9 -14 -23 -23 -30 -20 -9 4 -14
-2 -14 -15 0 -17 4 -20 28 -14 20 4 33 1 41 -9 19 -22 -3 -54 -52 -76 -23 -10
-36 -19 -29 -19 7 -1 22 4 32 9 17 9 23 4 45 -30 21 -34 30 -40 59 -40 49 0
59 -34 20 -66 -16 -13 -39 -23 -50 -24 -33 0 -36 -51 -8 -137 13 -39 22 -78
19 -86 -8 -18 56 -46 112 -49 31 -1 49 5 77 26 20 15 36 32 36 38 0 6 -10 2
-22 -9 -29 -26 -64 -44 -71 -37 -8 8 3 34 15 34 5 0 23 9 39 21 20 14 29 29
29 49 0 16 11 42 25 58 14 17 28 44 32 62 5 29 4 32 -15 26 -14 -5 -28 1 -46
19 -14 14 -30 25 -36 25 -5 0 -10 6 -10 14 0 8 -10 16 -22 18 -20 3 -23 9 -24
51 -1 26 2 47 5 47 4 0 15 -16 24 -35 14 -29 22 -35 47 -35 17 0 48 11 70 25
l40 25 1 -42 c1 -42 1 -42 9 -11 11 46 1 80 -28 103 -30 24 -98 26 -126 5 -26
-20 -43 -19 -73 5 -14 11 -36 20 -49 20 -30 0 -30 5 2 48 32 41 78 62 138 62
72 0 92 -12 100 -60 9 -57 32 -48 29 11 -1 24 -4 55 -6 69 -2 14 -5 30 -5 37
-2 16 -149 84 -176 81 -12 -1 -47 -3 -78 -5z"/>
<path d="M1690 2102 c0 -13 11 -49 25 -82 19 -45 25 -77 25 -134 0 -121 -43
-287 -70 -271 -6 4 -10 -4 -10 -17 0 -27 -57 -101 -71 -93 -5 4 -9 20 -9 36 0
22 12 41 45 74 l45 45 -16 88 c-9 48 -24 107 -35 132 -16 38 -18 55 -10 88 1
2 14 -6 30 -17 42 -30 47 -26 15 14 -16 19 -39 47 -50 62 -19 25 -27 28 -65
25 -24 -2 -50 -9 -56 -14 -19 -15 -16 -56 5 -86 44 -65 54 -113 42 -222 -5
-56 -10 -107 -10 -113 0 -46 -102 207 -115 283 -2 13 -9 26 -15 28 -17 6 -38
54 -45 107 -10 69 -28 95 -20 30 l6 -50 -65 -38 c-47 -28 -74 -37 -97 -35 -36
3 -51 -17 -19 -27 11 -3 18 -10 15 -14 -8 -14 -170 -121 -182 -121 -7 0 -18 8
-25 18 -7 9 -22 24 -33 32 -18 13 -19 13 -9 0 15 -20 14 -49 -2 -43 -15 6 -21
-21 -34 -157 -11 -126 -60 -303 -111 -401 -10 -21 -19 -57 -19 -80 0 -31 -4
-42 -18 -45 -15 -5 -18 -21 -20 -135 l-3 -129 145 0 c143 0 146 0 150 22 3 13
12 68 21 123 16 92 39 186 53 210 7 12 51 -159 52 -200 0 -16 -9 -58 -19 -92
l-19 -63 445 0 c418 0 444 1 439 18 -3 9 -8 31 -11 47 -4 17 -9 38 -12 48 -2
9 0 17 5 17 5 0 15 -29 22 -65 l12 -65 130 0 c72 0 127 4 124 9 -10 16 -39
244 -38 301 1 14 -11 61 -24 105 -52 165 -83 314 -90 433 -8 138 -11 144 -102
187 -35 16 -68 38 -73 48 -6 9 -14 15 -20 11 -5 -3 -55 38 -109 92 -81 79
-100 93 -100 76z"/>
<path d="M492 1862 l-173 -87 3 -85 3 -85 170 -87 c94 -48 174 -87 178 -88 4
0 7 30 5 68 l-3 67 -125 64 -124 64 127 63 127 64 0 65 c0 36 -3 65 -7 64 -5
0 -86 -39 -181 -87z"/>
<path d="M2320 1757 l0 -62 127 -64 128 -63 -128 -64 -127 -64 0 -65 c0 -36 2
-65 5 -65 3 0 84 39 180 87 l175 88 0 82 0 83 -170 85 c-93 47 -174 85 -180
85 -6 0 -10 -27 -10 -63z"/>
<path d="M1482 781 c-79 -20 -96 -86 -33 -128 60 -41 192 -24 224 28 16 25 -1
67 -32 83 -36 19 -117 27 -159 17z"/>
<path d="M430 705 l0 -77 98 4 c110 5 152 20 166 61 9 24 6 31 -17 55 -26 26
-33 27 -137 30 l-110 4 0 -77z"/>
<path d="M722 708 l3 -73 128 -3 c122 -2 127 -2 127 18 0 19 -6 20 -100 20
-60 0 -100 4 -100 10 0 6 35 10 85 10 78 0 85 2 85 20 0 17 -8 20 -87 23 l-88
3 98 2 c90 2 97 4 97 22 0 19 -7 20 -125 20 l-126 0 3 -72z"/>
<path d="M1112 708 c3 -67 5 -73 26 -76 17 -3 22 2 22 17 0 12 11 26 28 35 27
14 31 13 77 -20 44 -31 105 -46 105 -26 0 4 -23 22 -50 41 -28 19 -50 37 -50
41 0 3 21 17 48 30 l47 25 -42 3 c-30 2 -56 -4 -95 -25 -29 -15 -56 -29 -60
-31 -5 -2 -8 10 -8 27 0 27 -4 31 -25 31 -26 0 -26 -1 -23 -72z"/>
<path d="M1702 708 l3 -73 100 0 c114 1 160 17 171 61 5 20 1 32 -20 52 -25
26 -32 27 -142 30 l-115 4 3 -74z"/>
<path d="M2002 708 l3 -73 128 -3 c122 -2 127 -2 127 18 0 19 -6 20 -100 20
-60 0 -100 4 -100 10 0 6 35 10 85 10 78 0 85 2 85 20 0 17 -8 20 -87 23 l-88
3 98 2 c90 2 97 4 97 22 0 19 -7 20 -125 20 l-126 0 3 -72z"/>
<path d="M2333 749 c26 -17 47 -35 47 -39 0 -5 -20 -21 -44 -36 -30 -19 -41
-31 -33 -36 22 -14 52 -8 90 17 l37 26 37 -26 c35 -23 103 -35 103 -17 0 4
-20 20 -45 35 -25 16 -45 32 -45 35 0 4 21 21 48 37 l47 30 -38 3 c-25 2 -50
-4 -74 -18 l-35 -20 -33 20 c-18 11 -49 20 -71 20 l-39 0 48 -31z"/>
</g>
</svg>
